<svg width="100" height="100" viewBox="0 0 100 100" fill="none" xmlns="http://www.w3.org/2000/svg">
<g clip-path="url(#clip0_6810_11)">
<path d="M50 12.5C50.8288 12.5 51.6237 12.8292 52.2097 13.4153C52.7958 14.0013 53.125 14.7962 53.125 15.625V25C53.125 25.8288 52.7958 26.6237 52.2097 27.2097C51.6237 27.7958 50.8288 28.125 50 28.125C49.1712 28.125 48.3763 27.7958 47.7903 27.2097C47.2042 26.6237 46.875 25.8288 46.875 25V15.625C46.875 14.7962 47.2042 14.0013 47.7903 13.4153C48.3763 12.8292 49.1712 12.5 50 12.5ZM23.325 23.325C23.911 22.7392 24.7057 22.41 25.5344 22.41C26.363 22.41 27.1577 22.7392 27.7438 23.325L33.4625 29.0375C34.0493 29.6243 34.3789 30.4202 34.3789 31.25C34.3789 32.0798 34.0493 32.8757 33.4625 33.4625C32.8757 34.0493 32.0798 34.379 31.25 34.379C30.4202 34.379 29.6243 34.0493 29.0375 33.4625L23.325 27.7438C22.7392 27.1577 22.41 26.363 22.41 25.5344C22.41 24.7057 22.7392 23.911 23.325 23.325ZM12.5 50C12.5 49.1712 12.8292 48.3763 13.4153 47.7903C14.0013 47.2042 14.7962 46.875 15.625 46.875H25.5375C26.3663 46.875 27.1612 47.2042 27.7472 47.7903C28.3333 48.3763 28.6625 49.1712 28.6625 50C28.6625 50.8288 28.3333 51.6237 27.7472 52.2097C27.1612 52.7958 26.3663 53.125 25.5375 53.125H15.625C14.7962 53.125 14.0013 52.7958 13.4153 52.2097C12.8292 51.6237 12.5 50.8288 12.5 50ZM71.875 50C71.875 49.1712 72.2042 48.3763 72.7903 47.7903C73.3763 47.2042 74.1712 46.875 75 46.875H84.375C85.2038 46.875 85.9987 47.2042 86.5847 47.7903C87.1708 48.3763 87.5 49.1712 87.5 50C87.5 50.8288 87.1708 51.6237 86.5847 52.2097C85.9987 52.7958 85.2038 53.125 84.375 53.125H75C74.1712 53.125 73.3763 52.7958 72.7903 52.2097C72.2042 51.6237 71.875 50.8288 71.875 50ZM76.5875 23.4625C76.1545 23.0318 75.5753 22.7798 74.965 22.7566C74.3548 22.7335 73.7581 22.9408 73.2938 23.3375L47.1688 45.6875C46.567 46.2027 46.0795 46.8379 45.7375 47.5524C45.3955 48.2669 45.2065 49.045 45.1827 49.8368C45.1588 50.6286 45.3007 51.4167 45.5991 52.1505C45.8975 52.8843 46.3459 53.5476 46.9156 54.0981C47.4853 54.6485 48.1636 55.0739 48.9073 55.3469C49.6509 55.6199 50.4433 55.7346 51.2338 55.6836C52.0243 55.6326 52.7955 55.417 53.4978 55.0507C54.2002 54.6844 54.8183 54.1753 55.3125 53.5563L76.775 26.7C77.1484 26.2326 77.3364 25.6439 77.3029 25.0466C77.2695 24.4493 77.017 23.8853 76.5938 23.4625H76.5875Z" fill="#00AC8B"/>
<path fill-rule="evenodd" clip-rule="evenodd" d="M41.65 99.3062C35.1746 98.2097 28.9786 95.8485 23.4157 92.3574C17.8529 88.8663 13.0321 84.3137 9.22868 78.9595C1.54731 68.1463 -1.52392 54.7245 0.690639 41.6469C2.9052 28.5692 10.2241 16.9069 21.0374 9.22554C31.8506 1.54416 45.2724 -1.52706 58.35 0.687496C71.4285 2.90205 83.0916 10.2213 90.7736 21.0351C98.4555 31.8489 101.527 45.2715 99.3125 58.35C97.098 71.4285 89.7787 83.0916 78.9649 90.7735C68.1511 98.4555 54.7285 101.527 41.65 99.3125V99.3062ZM12.4938 72.5375C23.8918 65.9424 36.8315 62.4794 50 62.5C63.6625 62.5 76.475 66.1562 87.5063 72.5375C91.493 65.899 93.6463 58.3213 93.7464 50.5783C93.8464 42.8354 91.8895 35.2046 88.0756 28.4653C84.2617 21.726 78.7274 16.1198 72.038 12.2191C65.3485 8.31848 57.7436 6.2632 50 6.2632C42.2564 6.2632 34.6515 8.31848 27.9621 12.2191C21.2726 16.1198 15.7383 21.726 11.9244 28.4653C8.11051 35.2046 6.15364 42.8354 6.25366 50.5783C6.35369 58.3213 8.50703 65.899 12.4938 72.5375Z" fill="#00AC8B"/>
</g>
<defs>
<clipPath id="clip0_6810_11">
<rect width="100" height="100" fill="white"/>
</clipPath>
</defs>
</svg>
