<svg width="100" height="100" viewBox="0 0 100 100" fill="none" xmlns="http://www.w3.org/2000/svg">
<path fill-rule="evenodd" clip-rule="evenodd" d="M9.70625 42.35C10.0776 41.6107 10.7269 41.0488 11.5119 40.7876C12.2969 40.5263 13.1534 40.587 13.8938 40.9563L50 59L86.1 40.95C86.4673 40.7624 86.8681 40.6493 87.2792 40.6173C87.6904 40.5853 88.1038 40.635 88.4957 40.7636C88.8876 40.8921 89.2501 41.097 89.5625 41.3663C89.8748 41.6357 90.1307 41.9642 90.3155 42.3329C90.5002 42.7016 90.6102 43.1032 90.639 43.5146C90.6678 43.926 90.6149 44.3391 90.4833 44.7299C90.3517 45.1208 90.1441 45.4818 89.8724 45.792C89.6006 46.1022 89.2701 46.3556 88.9 46.5375L51.4 65.2875C50.9654 65.5053 50.4861 65.6186 50 65.6186C49.5139 65.6186 49.0346 65.5053 48.6 65.2875L11.1 46.5375C10.3607 46.1662 9.79882 45.5168 9.53755 44.7319C9.27628 43.9469 9.33695 43.0903 9.70625 42.35V42.35Z" fill="#00AC8B"/>
</svg>
