<svg width="100" height="100" viewBox="0 0 100 100" fill="none" xmlns="http://www.w3.org/2000/svg">
<path d="M67.8375 50.9125C68.1285 51.2028 68.3594 51.5476 68.517 51.9273C68.6745 52.3069 68.7556 52.714 68.7556 53.125C68.7556 53.536 68.6745 53.9431 68.517 54.3227C68.3594 54.7024 68.1285 55.0472 67.8375 55.3375L49.0875 74.0875C48.7972 74.3785 48.4524 74.6094 48.0727 74.767C47.6931 74.9245 47.2861 75.0056 46.875 75.0056C46.464 75.0056 46.057 74.9245 45.6773 74.767C45.2976 74.6094 44.9528 74.3785 44.6625 74.0875L35.2875 64.7125C34.997 64.422 34.7665 64.077 34.6092 63.6974C34.452 63.3178 34.3711 62.9109 34.3711 62.5C34.3711 62.0891 34.452 61.6822 34.6092 61.3026C34.7665 60.923 34.997 60.578 35.2875 60.2875C35.8743 59.7007 36.6702 59.3711 37.5 59.3711C37.9109 59.3711 38.3178 59.452 38.6974 59.6092C39.077 59.7665 39.422 59.997 39.7125 60.2875L46.875 67.4563L63.4125 50.9125C63.7028 50.6215 64.0476 50.3906 64.4273 50.233C64.807 50.0755 65.214 49.9944 65.625 49.9944C66.0361 49.9944 66.4431 50.0755 66.8227 50.233C67.2024 50.3906 67.5472 50.6215 67.8375 50.9125Z" fill="#00AC8B"/>
<path d="M21.875 0C22.7038 0 23.4987 0.32924 24.0847 0.915291C24.6708 1.50134 25 2.2962 25 3.125V6.25H75V3.125C75 2.2962 75.3292 1.50134 75.9153 0.915291C76.5013 0.32924 77.2962 0 78.125 0C78.9538 0 79.7487 0.32924 80.3347 0.915291C80.9208 1.50134 81.25 2.2962 81.25 3.125V6.25H87.5C90.8152 6.25 93.9946 7.56696 96.3388 9.91117C98.683 12.2554 100 15.4348 100 18.75V87.5C100 90.8152 98.683 93.9946 96.3388 96.3388C93.9946 98.683 90.8152 100 87.5 100H12.5C9.18479 100 6.00537 98.683 3.66117 96.3388C1.31696 93.9946 0 90.8152 0 87.5V18.75C0 15.4348 1.31696 12.2554 3.66117 9.91117C6.00537 7.56696 9.18479 6.25 12.5 6.25H18.75V3.125C18.75 2.2962 19.0792 1.50134 19.6653 0.915291C20.2513 0.32924 21.0462 0 21.875 0V0ZM12.5 12.5C10.8424 12.5 9.25268 13.1585 8.08058 14.3306C6.90848 15.5027 6.25 17.0924 6.25 18.75V87.5C6.25 89.1576 6.90848 90.7473 8.08058 91.9194C9.25268 93.0915 10.8424 93.75 12.5 93.75H87.5C89.1576 93.75 90.7473 93.0915 91.9194 91.9194C93.0915 90.7473 93.75 89.1576 93.75 87.5V18.75C93.75 17.0924 93.0915 15.5027 91.9194 14.3306C90.7473 13.1585 89.1576 12.5 87.5 12.5H12.5Z" fill="#00AC8B"/>
<path d="M15.625 25C15.625 24.1712 15.9542 23.3763 16.5403 22.7903C17.1263 22.2042 17.9212 21.875 18.75 21.875H81.25C82.0788 21.875 82.8737 22.2042 83.4597 22.7903C84.0458 23.3763 84.375 24.1712 84.375 25V31.25C84.375 32.0788 84.0458 32.8737 83.4597 33.4597C82.8737 34.0458 82.0788 34.375 81.25 34.375H18.75C17.9212 34.375 17.1263 34.0458 16.5403 33.4597C15.9542 32.8737 15.625 32.0788 15.625 31.25V25Z" fill="#00AC8B"/>
</svg>
